<svg xmlns="http://www.w3.org/2000/svg" xmlns:xlink="http://www.w3.org/1999/xlink" width="1523" zoomAndPan="magnify" viewBox="0 0 1142.25 396.749984" height="529" preserveAspectRatio="xMidYMid meet" version="1.0"><defs><g/><clipPath id="319b6567c8"><path d="M 391.816406 0.00390625 L 1141.324219 0.00390625 L 1141.324219 231.601562 L 391.816406 231.601562 Z M 391.816406 0.00390625 " clip-rule="nonzero"/></clipPath><clipPath id="499e39c42f"><path d="M 1 0.00390625 L 601 0.00390625 L 601 231.453125 L 1 231.453125 Z M 1 0.00390625 " clip-rule="nonzero"/></clipPath><clipPath id="d3db775c20"><path d="M 477 0.00390625 L 750 0.00390625 L 750 231.453125 L 477 231.453125 Z M 477 0.00390625 " clip-rule="nonzero"/></clipPath><clipPath id="b92b63811b"><rect x="0" width="751" y="0" height="232"/></clipPath></defs><g clip-path="url(#319b6567c8)"><g transform="matrix(1, 0, 0, 1, 391, -0.000000000000007052)"><g clip-path="url(#b92b63811b)"><path fill="#918f8f" d="M 674.410156 224.921875 L 552.015625 81.109375 L 531.617188 105.589844 L 551.675781 93.6875 L 674.410156 224.921875 " fill-opacity="1" fill-rule="nonzero"/><path fill="#918f8f" d="M 514.730469 212.628906 L 402.796875 81.109375 L 369.589844 121.800781 L 402.457031 93.6875 L 514.730469 212.628906 " fill-opacity="1" fill-rule="nonzero"/><g clip-path="url(#499e39c42f)"><path fill="#325372" d="M 310.496094 107.800781 L 402.535156 0.015625 L 600.117188 231.394531 L 483.609375 231.394531 L 539.011719 219.679688 L 402.535156 59.855469 L 347.8125 123.945312 L 1.25 123.945312 L 310.496094 107.800781 " fill-opacity="1" fill-rule="nonzero"/></g><g clip-path="url(#d3db775c20)"><path fill="#121e2b" d="M 552.136719 0.0195312 L 600.113281 56.203125 L 600.113281 37.25 L 627.535156 37.25 L 645.214844 65.980469 L 627.535156 56.183594 L 627.535156 88.316406 L 749.714844 231.394531 L 698.617188 231.394531 L 552.136719 59.859375 L 512.777344 105.949219 L 477.324219 87.601562 L 552.136719 0.0195312 " fill-opacity="1" fill-rule="nonzero"/></g></g></g></g><g fill="#121e2b" fill-opacity="1"><g transform="translate(42.694821, 282.922509)"><g><path d="M 6.90625 14.765625 L 6.90625 -121.0625 L 32.046875 -121.0625 L 32.046875 14.765625 Z M 6.90625 14.765625 "/></g></g></g><g fill="#121e2b" fill-opacity="1"><g transform="translate(85.094062, 282.922509)"><g><path d="M 18.609375 -77.125 L 4.609375 -77.125 L 17.078125 -95.734375 L 4.40625 -95.734375 L 4.40625 -121.0625 L 30.703125 -121.0625 L 30.703125 -95.734375 Z M 49.890625 -77.125 L 35.875 -77.125 L 48.34375 -95.734375 L 35.6875 -95.734375 L 35.6875 -121.0625 L 61.96875 -121.0625 L 61.96875 -95.734375 Z M 49.890625 -77.125 "/></g></g></g><g fill="#121e2b" fill-opacity="1"><g transform="translate(153.968694, 282.922509)"><g><path d="M 21.875 -121.0625 L 49.890625 -121.0625 L 44.3125 -9.40625 C 44.1875 -6.84375 43.164062 -4.632812 41.25 -2.78125 C 39.332031 -0.925781 37.03125 0 34.34375 0 L 8.828125 0 L 8.828125 -17.65625 L 20.140625 -17.65625 L 24.9375 -103.21875 L 1.53125 -103.21875 L 1.53125 -135.453125 L 21.875 -135.453125 Z M 21.875 -121.0625 "/></g></g></g><g fill="#121e2b" fill-opacity="1"><g transform="translate(210.948582, 282.922509)"><g><path d="M 2.875 -121.0625 L 50.84375 -121.0625 L 50.84375 -103.21875 L 48.734375 -103.21875 C 46.171875 -103.21875 44.890625 -100.789062 44.890625 -95.9375 L 44.890625 0 L 19.765625 0 L 19.765625 -93.046875 L 25.515625 -103.21875 L 2.875 -103.21875 Z M 2.875 -121.0625 "/></g></g></g><g fill="#121e2b" fill-opacity="1"><g transform="translate(270.806234, 282.922509)"><g><path d="M 7.296875 -121.0625 L 42.203125 -121.0625 L 42.203125 -9.59375 C 42.203125 -7.03125 41.210938 -4.789062 39.234375 -2.875 C 37.253906 -0.957031 34.984375 0 32.421875 0 L 3.265625 0 L 3.265625 -17.65625 L 15.15625 -17.65625 L 15.15625 -103.21875 L 7.296875 -103.21875 Z M 7.296875 -121.0625 "/></g></g></g><g fill="#325372" fill-opacity="1"><g transform="translate(324.334104, 282.922509)"><g/></g></g><g fill="#325372" fill-opacity="1"><g transform="translate(352.344546, 282.922509)"><g><path d="M 5.1875 -121.0625 L 68.109375 -121.0625 L 68.109375 0 L 42.59375 0 L 42.59375 -103.21875 L 33.390625 -103.21875 L 33.390625 -9.59375 C 33.390625 -3.195312 30.125 0 23.59375 0 L 1.34375 0 L 1.34375 -17.65625 L 8.828125 -17.65625 L 8.828125 -93.8125 L 14.390625 -103.21875 L 5.1875 -103.21875 Z M 5.1875 -121.0625 "/></g></g></g><g fill="#325372" fill-opacity="1"><g transform="translate(431.195411, 282.922509)"><g><path d="M 7.859375 -121.0625 L 33 -121.0625 L 33 0 L 7.859375 0 Z M 7.859375 -121.0625 "/></g></g></g><g fill="#325372" fill-opacity="1"><g transform="translate(474.937604, 282.922509)"><g><path d="M 47.96875 0 L 2.875 0 L 2.875 -17.65625 L 17.078125 -17.65625 L 11.125 -28.78125 L 11.125 -121.0625 L 35.6875 -121.0625 L 35.6875 -17.65625 L 39.71875 -17.65625 C 42.78125 -17.65625 44.3125 -19.703125 44.3125 -23.796875 L 44.3125 -121.0625 L 68.5 -121.0625 L 68.5 -26.28125 C 68.5 -17.457031 67.085938 -10.867188 64.265625 -6.515625 C 61.453125 -2.171875 56.019531 0 47.96875 0 Z M 47.96875 0 "/></g></g></g><g fill="#325372" fill-opacity="1"><g transform="translate(553.021051, 282.922509)"><g><path d="M 4.984375 -121.0625 L 77.3125 -121.0625 L 73.296875 -9.59375 C 72.648438 -3.195312 69.832031 0 64.84375 0 L 42.78125 0 L 42.78125 -17.65625 L 49.5 -17.65625 L 52.375 -103.21875 L 35.875 -103.21875 L 35.875 14.765625 L 10.75 14.765625 L 10.75 -93.8125 L 16.3125 -103.21875 L 4.984375 -103.21875 Z M 4.984375 -121.0625 "/></g></g></g><g fill="#325372" fill-opacity="1"><g transform="translate(637.627444, 282.922509)"><g><path d="M 40.671875 -25.90625 L 40.671875 -121.0625 L 64.84375 -121.0625 L 64.84375 -31.078125 Z M 73.296875 -29.734375 L 73.296875 -121.0625 L 97.46875 -121.0625 L 97.46875 -27.8125 C 97.46875 -22.957031 96.28125 -18.382812 93.90625 -14.09375 C 91.539062 -9.8125 88.21875 -6.390625 83.9375 -3.828125 C 79.65625 -1.273438 74.695312 0 69.0625 0 L 7.296875 0 L 7.296875 -121.0625 L 31.46875 -121.0625 L 31.46875 -17.65625 L 62.546875 -17.65625 C 66.640625 -17.65625 69.453125 -18.738281 70.984375 -20.90625 C 72.523438 -23.082031 73.296875 -26.023438 73.296875 -29.734375 Z M 73.296875 -29.734375 "/></g></g></g><g fill="#325372" fill-opacity="1"><g transform="translate(745.255905, 282.922509)"><g><path d="M 32.8125 0 L 7.484375 0 L 7.484375 -86.71875 L 32.8125 -90.5625 Z M 60.4375 -121.0625 C 62.863281 -121.0625 64.8125 -120.257812 66.28125 -118.65625 C 67.757812 -117.0625 68.5 -114.859375 68.5 -112.046875 L 68.5 0 L 43.171875 0 L 43.171875 -103.21875 L 6.71875 -103.21875 L 6.71875 -121.0625 Z M 60.4375 -121.0625 "/></g></g></g><g fill="#121e2b" fill-opacity="1"><g transform="translate(387.624434, 358.923439)"><g><path d="M 24.03125 -22.421875 C 24.03125 -24.171875 23.578125 -25.472656 22.671875 -26.328125 C 21.765625 -27.191406 20.378906 -27.625 18.515625 -27.625 L 4.1875 -27.625 L 4.1875 -34.671875 L 19.171875 -34.671875 C 22.109375 -34.671875 24.617188 -34.175781 26.703125 -33.1875 C 28.796875 -32.195312 30.382812 -30.75 31.46875 -28.84375 C 32.5625 -26.945312 33.109375 -24.660156 33.109375 -21.984375 L 33.109375 0 L 24.03125 0 Z M 4.078125 -11.890625 C 4.078125 -15.222656 4.769531 -17.707031 6.15625 -19.34375 L 13.390625 -19.34375 C 13.023438 -17.613281 12.84375 -15.457031 12.84375 -12.875 L 12.84375 0 L 4.078125 0 Z M 4.078125 -11.890625 "/></g></g></g><g fill="#121e2b" fill-opacity="1"><g transform="translate(427.135846, 358.923439)"><g><path d="M 8.359375 0.578125 C 7.253906 0.578125 6.210938 0.515625 5.234375 0.390625 C 4.253906 0.265625 3.085938 0.0546875 1.734375 -0.234375 L 1.765625 -7.0625 C 3.054688 -6.863281 4.453125 -6.765625 5.953125 -6.765625 C 7.285156 -6.765625 8.273438 -7.128906 8.921875 -7.859375 C 9.566406 -8.597656 9.890625 -9.726562 9.890625 -11.25 L 9.890625 -27.625 L 3.765625 -27.625 L 3.765625 -34.671875 L 18.96875 -34.671875 L 18.96875 -10.53125 C 18.96875 -8.195312 18.546875 -6.195312 17.703125 -4.53125 C 16.867188 -2.875 15.65625 -1.609375 14.0625 -0.734375 C 12.476562 0.140625 10.578125 0.578125 8.359375 0.578125 Z M 8.359375 0.578125 "/></g></g></g><g fill="#121e2b" fill-opacity="1"><g transform="translate(453.371548, 358.923439)"><g><path d="M 31.359375 -6.765625 L 31.359375 0 L 1.53125 0 L 1.53125 -7.09375 L 18.25 -7.09375 L 18.25 -22.421875 C 18.25 -24.171875 17.789062 -25.472656 16.875 -26.328125 C 15.957031 -27.191406 14.570312 -27.625 12.71875 -27.625 L 3.390625 -27.625 L 3.390625 -34.671875 L 13.359375 -34.671875 C 16.296875 -34.671875 18.804688 -34.175781 20.890625 -33.1875 C 22.984375 -32.195312 24.578125 -30.75 25.671875 -28.84375 C 26.773438 -26.945312 27.328125 -24.660156 27.328125 -21.984375 L 27.328125 -7.375 Z M 31.359375 -6.765625 "/></g></g></g><g fill="#121e2b" fill-opacity="1"><g transform="translate(488.13957, 358.923439)"><g><path d="M 6.90625 -27.625 L 1.46875 -27.625 L 1.46875 -34.671875 L 16 -34.671875 L 16 -14.890625 L 6.90625 -14.890625 Z M 6.90625 -27.625 "/></g></g></g><g fill="#121e2b" fill-opacity="1"><g transform="translate(511.049113, 358.923439)"><g><path d="M 30.21875 -28.859375 L 18.734375 0 L 9.140625 0 L 20.484375 -27.625 L 1.875 -27.625 L 1.875 -44.421875 L 10.96875 -44.421875 L 10.96875 -34.671875 L 30.21875 -34.671875 Z M 30.21875 -28.859375 "/></g></g></g><g fill="#121e2b" fill-opacity="1"><g transform="translate(545.846058, 358.923439)"><g/></g></g><g fill="#121e2b" fill-opacity="1"><g transform="translate(563.144518, 358.923439)"><g><path d="M 16.515625 -22.90625 C 16.515625 -24.445312 16.078125 -25.617188 15.203125 -26.421875 C 14.335938 -27.222656 13.085938 -27.625 11.453125 -27.625 L 1.015625 -27.625 L 1.015625 -34.671875 L 12.125 -34.671875 C 14.914062 -34.671875 17.320312 -34.179688 19.34375 -33.203125 C 21.375 -32.234375 22.921875 -30.832031 23.984375 -29 C 25.054688 -27.175781 25.59375 -24.988281 25.59375 -22.4375 L 25.59375 0 L 16.515625 0 Z M 16.515625 -22.90625 "/></g></g></g><g fill="#121e2b" fill-opacity="1"><g transform="translate(595.135909, 358.923439)"><g><path d="M 5.234375 -27.625 L 2.203125 -27.625 L 2.203125 -34.671875 L 14.3125 -34.671875 L 14.3125 0 L 5.234375 0 Z M 5.234375 -27.625 "/></g></g></g><g fill="#121e2b" fill-opacity="1"><g transform="translate(616.715001, 358.923439)"><g><path d="M 27.1875 -14.609375 L 37.3125 0 L 27.1875 0 L 14.28125 -18.59375 C 13.625 -17.800781 13.296875 -16.734375 13.296875 -15.390625 L 13.296875 0 L 4.546875 0 L 4.546875 -11.484375 C 4.546875 -14.679688 5.035156 -17.25 6.015625 -19.1875 C 6.992188 -21.125 8.582031 -22.613281 10.78125 -23.65625 L 3.125 -34.671875 L 13.28125 -34.671875 L 21.640625 -22.625 L 27.484375 -34.671875 L 37.65625 -34.671875 Z M 27.1875 -14.609375 "/></g></g></g><g fill="#121e2b" fill-opacity="1"><g transform="translate(659.060868, 358.923439)"><g><path d="M 5.234375 -27.625 L 2.203125 -27.625 L 2.203125 -34.671875 L 14.3125 -34.671875 L 14.3125 0 L 5.234375 0 Z M 5.234375 -27.625 "/></g></g></g><g fill="#121e2b" fill-opacity="1"><g transform="translate(680.63996, 358.923439)"><g/></g></g><g fill="#121e2b" fill-opacity="1"><g transform="translate(697.938431, 358.923439)"><g><path d="M 5.265625 -27.625 L 2.109375 -27.625 L 2.109375 -34.671875 L 14.171875 -34.671875 L 14.171875 12.03125 L 5.265625 12.03125 Z M 5.265625 -27.625 "/></g></g></g><g fill="#121e2b" fill-opacity="1"><g transform="translate(719.401807, 358.923439)"><g><path d="M 6.90625 -27.625 L 1.46875 -27.625 L 1.46875 -34.671875 L 16 -34.671875 L 16 -14.890625 L 6.90625 -14.890625 Z M 6.90625 -27.625 "/></g></g></g><g fill="#121e2b" fill-opacity="1"><g transform="translate(742.311363, 358.923439)"><g><path d="M 32.390625 -34.671875 L 32.390625 -14.8125 C 32.390625 -11.457031 31.6875 -8.609375 30.28125 -6.265625 C 28.875 -3.921875 26.898438 -2.148438 24.359375 -0.953125 C 21.828125 0.242188 18.875 0.84375 15.5 0.84375 C 10.851562 0.84375 6.265625 -0.00390625 1.734375 -1.703125 L 3.609375 -8.328125 C 6.390625 -7.242188 9.023438 -6.519531 11.515625 -6.15625 C 10.816406 -6.8125 10.210938 -7.5625 9.703125 -8.40625 C 9.191406 -9.257812 8.832031 -10.160156 8.625 -11.109375 L 3.265625 -34.671875 L 12.40625 -34.671875 L 17.5 -10.203125 C 17.820312 -8.773438 18.207031 -7.617188 18.65625 -6.734375 C 20.15625 -7.359375 21.304688 -8.3125 22.109375 -9.59375 C 22.910156 -10.875 23.3125 -12.457031 23.3125 -14.34375 L 23.3125 -34.671875 Z M 32.390625 -34.671875 "/></g></g></g><g fill="#121e2b" fill-opacity="1"><g transform="translate(781.967391, 358.923439)"><g><path d="M 6.703125 -19.515625 C 6.898438 -21.078125 7.296875 -22.5625 7.890625 -23.96875 C 8.492188 -25.382812 9.195312 -26.492188 10 -27.296875 C 10.175781 -27.472656 10.3125 -27.582031 10.40625 -27.625 L 10.390625 -27.765625 C 9.648438 -27.648438 8.75 -27.441406 7.6875 -27.140625 C 6.632812 -26.847656 5.726562 -26.546875 4.96875 -26.234375 L 3.03125 -32.828125 C 5.289062 -33.640625 7.914062 -34.300781 10.90625 -34.8125 C 13.894531 -35.320312 16.71875 -35.578125 19.375 -35.578125 C 24.644531 -35.578125 28.648438 -34.226562 31.390625 -31.53125 C 34.140625 -28.832031 35.523438 -24.867188 35.546875 -19.640625 L 35.546875 0 L 20.359375 0 L 20.359375 -7.0625 L 26.46875 -7.0625 L 26.4375 -20.859375 C 26.4375 -23.171875 25.96875 -24.96875 25.03125 -26.25 C 24.09375 -27.53125 22.773438 -28.171875 21.078125 -28.171875 C 19.460938 -28.171875 18.191406 -27.535156 17.265625 -26.265625 C 16.335938 -24.992188 15.75 -23.132812 15.5 -20.6875 L 13.453125 0 L 4.484375 0 Z M 6.703125 -19.515625 "/></g></g></g></svg>